<svg width="155" height="180" viewBox="0 0 155 180" fill="none" xmlns="http://www.w3.org/2000/svg">
<path d="M133.467 2.78308C138.934 35.7004 109.361 73.1108 84.2911 77.9817C86.6963 75.8667 87.7115 74.5543 89.1016 73.7517C113.535 59.4031 125.027 37.4348 127.45 9.808C127.712 6.91266 129.422 4.15042 130.533 1.32981C131.531 1.8026 132.529 2.2754 133.467 2.78308Z" fill="#FBB130"/>
<path d="M74.4316 68.5823C77.75 65.5366 79.4649 63.9008 81.2403 62.2302C93.6423 50.6314 101.167 37.0061 100.065 19.3236C99.9228 16.9844 102.37 14.5227 104.508 12.6427C111.854 33.7415 95.3957 65.1137 74.4316 68.5823Z" fill="#FBB130"/>
<path d="M99.7405 81.5707C108.324 75.0819 117.033 69.6498 124.176 62.6205C130.906 55.9915 135.998 47.6443 143.19 38.3271C144.331 56.6333 119.25 79.9101 99.7056 81.5102L99.7405 81.5707Z" fill="#FBB130"/>
<g clip-path="url(#clip0_6021_7844)">
<path d="M61.5458 150.613C49.9523 159.08 38.6151 167.347 27.2997 175.643C26.469 176.253 25.8352 177.125 25.0342 177.784C23.1811 179.305 21.4318 178.695 21.0111 176.322C20.8492 175.377 20.8944 174.407 21.1435 173.481C22.3238 169.236 23.4506 164.966 24.8859 160.805C27.605 152.926 30.5205 145.115 33.3576 137.277C33.6531 136.461 33.9761 135.655 34.2298 134.99C26.2751 127.712 18.7444 120.283 11.3948 112.671C10.4064 111.628 9.56977 110.45 8.90973 109.173C8.06931 107.569 8.65358 106.492 10.422 106.258C12.1687 106.017 13.9297 105.897 15.6927 105.898C22.4242 105.938 29.1549 106.088 35.8865 106.125C38.5242 106.14 41.1629 105.969 43.9412 105.877C45.223 102.67 46.4799 99.5624 47.7097 96.4438C50.9456 88.2382 54.1757 80.0299 57.4 71.8188C57.5116 71.518 57.6421 71.2244 57.7903 70.9398C58.7236 69.2316 60.4733 69.0714 61.6411 70.6584C62.1315 71.3908 62.5306 72.1808 62.829 73.0106C65.3647 79.2536 67.7796 85.5477 70.4342 91.7386C71.9793 95.3409 73.8999 98.7823 75.6938 102.385C76.4611 102.385 77.0897 102.397 77.7208 102.385C85.5705 102.205 93.4197 101.978 101.27 101.857C105.028 101.799 108.789 101.965 112.549 101.976C113.777 101.98 114.798 102.288 115.341 103.446C115.607 103.999 115.681 104.624 115.551 105.224C115.422 105.823 115.097 106.362 114.627 106.754C112.155 109.159 109.689 111.573 107.11 113.859C100.268 119.928 93.3658 125.93 86.4927 131.966C85.8419 132.537 85.233 133.156 84.6266 133.733C84.6944 134.105 84.7912 134.471 84.9154 134.828C90.1471 146.098 93.3908 157.987 95.864 170.116C96.2871 171.827 96.6153 173.561 96.8473 175.307C97.1001 178.101 96.1619 178.493 93.4832 178.925C89.7341 179.532 87.4549 177.552 85.0728 175.367C78.8635 169.671 72.6508 163.975 67.2251 157.49C65.3748 155.279 63.5539 153.046 61.5458 150.613Z" fill="#FBB130"/>
</g>
<g clip-path="url(#clip1_6021_7844)">
<path d="M53.3663 142.434C41.7729 150.9 30.4357 159.168 19.1203 167.464C18.2895 168.074 17.6557 168.946 16.8548 169.604C15.0016 171.126 13.2523 170.515 12.8316 168.143C12.6698 167.197 12.7149 166.228 12.9641 165.301C14.1443 161.057 15.2711 156.787 16.7065 152.626C19.4256 144.747 22.3411 136.936 25.1781 129.098C25.4737 128.281 25.7967 127.475 26.0503 126.811C18.0957 119.533 10.565 112.104 3.21538 104.491C2.22691 103.448 1.39033 102.271 0.730286 100.994C-0.110137 99.3891 0.474138 98.3127 2.24259 98.0781C3.98923 97.8377 5.75023 97.7178 7.51324 97.719C14.2448 97.7586 20.9755 97.9083 27.7071 97.9459C30.3448 97.9609 32.9835 97.7891 35.7618 97.6979C37.0436 94.4909 38.3004 91.3829 39.5302 88.2643C42.7661 80.0588 45.9963 71.8504 49.2205 63.6394C49.3322 63.3385 49.4626 63.0449 49.6109 62.7604C50.5442 61.0522 52.2939 60.8919 53.4616 62.479C53.9521 63.2114 54.3511 64.0013 54.6496 64.8311C57.1853 71.0741 59.6002 77.3683 62.2548 83.5592C63.7999 87.1614 65.7204 90.6029 67.5144 94.2051C68.2816 94.2051 68.9103 94.2177 69.5413 94.2051C77.391 94.0251 85.2403 93.7982 93.0909 93.6771C96.8488 93.6192 100.61 93.7852 104.37 93.7963C105.598 93.8002 106.618 94.1081 107.162 95.267C107.427 95.8193 107.501 96.4448 107.372 97.0441C107.242 97.6434 106.917 98.1821 106.448 98.5748C103.976 100.979 101.509 103.393 98.9311 105.68C92.0883 111.749 85.1864 117.751 78.3133 123.786C77.6625 124.358 77.0536 124.977 76.4471 125.553C76.515 125.925 76.6117 126.292 76.7359 126.649C81.9676 137.919 85.2114 149.807 87.6845 161.937C88.1076 163.648 88.4359 165.381 88.6679 167.128C88.9206 169.922 87.9825 170.314 85.3038 170.745C81.5546 171.353 79.2755 169.372 76.8933 167.187C70.684 161.492 64.4713 155.796 59.0457 149.311C57.1954 147.1 55.3745 144.867 53.3663 142.434ZM21.2128 159.499L21.5555 159.816C22.0065 159.497 22.4701 159.196 22.9067 158.857C32.1484 151.669 41.3914 144.482 50.6357 137.294C52.9317 135.514 54.2082 135.534 56.3843 137.432C57.8433 138.69 59.2189 140.041 60.5017 141.479C66.4641 148.24 73.1798 154.219 79.7939 160.303C80.062 160.55 80.3758 160.747 80.9039 161.144C80.824 160.545 80.8148 160.236 80.7392 159.945C78.0278 149.468 75.2784 139 71.3791 128.885C70.3423 126.195 70.6176 124.098 72.9333 122.031C80.5939 115.192 88.0956 108.173 95.6526 101.221C96.2741 100.65 96.8907 100.075 97.8697 99.1681C96.5109 99.1681 95.7147 99.1589 94.9191 99.1681C86.2631 99.2863 77.6028 99.2839 68.9531 99.5851C65.227 99.7149 62.8882 98.137 61.2772 95.016C61.2401 94.9445 61.2064 94.8712 61.1751 94.7979C59.6348 91.1855 57.9983 87.6112 56.586 83.9496C55.1145 80.1364 53.8679 76.2331 52.5028 72.376C52.2433 71.6428 51.891 70.9428 51.4058 69.8206C50.3902 72.3522 49.4443 74.4437 48.7031 76.6061C46.3623 83.437 44.0419 90.2761 41.8244 97.148C40.3943 101.579 37.1519 103.459 32.9104 103.166C26.5971 102.732 20.2703 102.479 13.9479 102.191C12.2151 102.111 10.4784 102.179 8.43847 102.179C10.6045 104.139 12.626 105.936 14.6077 107.773C19.9025 112.676 25.206 117.572 30.444 122.535C31.2839 123.393 31.9728 124.387 32.4819 125.475C33.1957 126.89 32.955 128.029 31.6154 128.796C30.6354 129.358 30.3399 130.148 30.0405 131.054C28.43 135.929 26.7569 140.781 25.233 145.679C23.8111 150.263 22.5466 154.892 21.2123 159.499H21.2128Z" fill="#111827"/>
</g>
<defs>
<clipPath id="clip0_6021_7844">
<rect width="107.821" height="110.051" fill="white" transform="translate(8.17944 69.1794)"/>
</clipPath>
<clipPath id="clip1_6021_7844">
<rect width="107.821" height="110.051" fill="white" transform="translate(0 61)"/>
</clipPath>
</defs>
</svg>
